<svg version="1.2" xmlns="http://www.w3.org/2000/svg" viewBox="0 0 2048 2048" width="2048" height="2048">
	<style>
		.s0 { fill: currentColor } 
	</style>
	<path class="s0" d="m1303.25 1202.25c50.96 21.56 85.72 62.11 106.34 112.64 6.19 16.05 9.46 32.17 11.41 49.23q0.3 2.49 0.62 5.05c1.02 11.12-0.28 17.98-5.62 27.83-4.55 5.37-7.72 7.6-14.67 8.83-8.76 0.5-15.3 0.25-22.33-5.33-8.51-9.37-9.67-16.99-10.75-29.37-4.37-41.83-22.63-76.31-54.54-103.86-21.29-15.93-43.64-24.34-70.09-27.22q-2.14-0.23-4.34-0.48c-4.07-0.42-8.14-0.78-12.22-1.12-9.05-1.86-14.18-5.61-19.69-12.95-2.8-9.17-2.63-17.35 0.88-26.12 21.05-24.56 69.52-6.49 95 2.87z"/>
	<path class="s0" d="m1300 1059q2.44 0.59 4.96 1.2c58.48 14.49 109.77 42.98 153.04 84.8 1.7 1.6 3.41 3.2 5.16 4.85 57.21 55.04 91.14 135.46 93.22 214.6 0.94 62.94-11.5 120.67-40.38 176.8-0.97 1.9-1.94 3.79-2.95 5.75-6.55 12.36-14.1 23.25-23.05 34 2.57 5.6 5.33 9.9 9.52 14.41q1.61 1.75 3.27 3.54 1.7 1.81 3.46 3.67 1.74 1.87 3.53 3.78c7.33 7.76 14.82 15.13 23.05 21.94 3.17 2.66 3.17 2.66 5.59 6.02 5.9 4.35 12.59 2.89 19.58 2.51 28.77-0.65 45.48 10.56 66.02 29.92 11.61 11.17 22.99 22.56 34.39 33.94q5.55 5.54 11.1 11.07 11.59 11.55 23.16 23.13 13.3 13.3 26.66 26.56 12.94 12.85 25.83 25.76 5.45 5.44 10.92 10.86 7.65 7.6 15.26 15.26 2.22 2.18 4.5 4.43c19.89 20.13 31.94 41.39 33.03 69.95-0.71 26.16-10.5 47.77-29.25 65.75-21.85 18.56-46.04 21.55-73.62 19.5-29.8-4.6-51.71-28.48-70.76-50.11-4.91-5.52-10-10.69-15.24-15.89-1.75-1.74-3.5-3.48-5.3-5.28q-2.88-2.85-5.75-5.71-16.02-15.92-32.02-31.87-9.66-9.63-19.34-19.24-9.38-9.33-18.74-18.67-3.57-3.56-7.15-7.11-4.99-4.94-9.94-9.91-1.49-1.46-3.02-2.97c-6.74-6.78-6.74-6.78-6.74-11.24q-1.97 0-4 0c-3.53-3.23-6.75-6.5-10-10q-1.72-1.77-3.48-3.59c-14.19-15.23-20.7-30.87-20.79-51.7 0.27-4.71 0.27-4.71 2.43-12.02 0.8-6.16 0.18-8.21-3.43-13.38-4.85-5.13-9.88-9.93-15.11-14.69q-5.23-4.94-10.46-9.89c-1.56-1.44-3.12-2.88-4.73-4.36-4.43-4.37-4.43-4.37-8.63-9.67-3.72-5.08-3.72-5.08-9.8-8.7q0-1.97 0-4-1.97 0-4 0 0-1.97 0-4c-1.79 1.16-3.58 2.32-5.42 3.52q-9.48 6.13-19.01 12.2-4.46 2.85-8.9 5.73c-66.44 41.66-153.27 49.4-228.8 33.05-88.01-20.43-161.99-76.32-209.73-152.71-43.43-71.96-57.5-160.6-39.04-242.7 2.49-9.87 5.57-19.47 8.9-29.09 0.71-2.13 1.43-4.26 2.16-6.46 14.25-39.73 35.41-74.93 63.18-106.52q3.67-4.18 7.29-8.4c34.2-39.09 80.12-69.84 129.37-86.62 1.92-0.66 1.92-0.66 3.88-1.32 9.94-3.33 19.96-6.13 30.12-8.68q2.33-0.59 4.73-1.21c44.5-10.86 96.67-12.06 141.27-0.79zm-250 164c-34.3 40.93-55.95 92.26-58 146q-0.12 2.84-0.24 5.77c-1.3 61.87 19.08 122.06 61.71 167.51 46.14 48.03 103.43 77.94 170.82 79.53 37.17 0.33 68.76-4.71 102.16-21.08 3.29-1.6 6.62-3.1 9.96-4.6 16.37-7.56 29.77-17.73 43.59-29.13 1.65-1.34 3.31-2.69 5.01-4.07 47.23-40.01 74.14-99.26 80.99-159.93 3.81-66.71-13.08-126.55-56-178-1.46-1.77-2.92-3.54-4.43-5.36-38.17-44.32-95.41-72.98-153.57-78.64-77.03-5.55-150.79 24.03-202 82z"/>
	<path class="s0" d="m571.53 58.24q4.89-0.01 9.77-0.03 13.27-0.03 26.54 0.01 14.36 0.01 28.73-0.03 28.09-0.03 56.18 0 22.84 0.02 45.68 0.01c2.17 0 4.35 0 6.59-0.01q6.62 0 13.24 0 62.01-0.02 124.02 0.03 53.12 0.04 106.24 0 61.79-0.05 123.58-0.03 6.6 0 13.2 0.01c2.16 0 4.33 0 6.56 0q22.79 0.01 45.59-0.02 27.81-0.02 55.62 0.02 14.17 0.03 28.34 0 13-0.02 26 0.03 4.67 0.01 9.35-0.01c28.52-0.13 56.45 3.17 83.36 13.16q2.48 0.89 5.03 1.82c25.16 9.36 47.79 21.04 68.85 37.8 1.76 1.33 3.51 2.66 5.32 4.02 52.8 41.1 84.42 101.57 93.73 167.44 0.98 7.94 1.21 15.75 1.23 23.75q0.01 2.17 0.01 4.4 0.03 7.25 0.03 14.51 0.01 5.26 0.03 10.53 0.03 14.45 0.05 28.9 0.03 15.59 0.07 31.18 0.07 27 0.11 54.01 0.07 39.04 0.16 78.08 0.14 63.35 0.27 126.69 0.11 61.53 0.25 123.06c0 2.53 0.01 5.06 0.01 7.67q0.04 19.03 0.08 38.06 0.34 157.85 0.65 315.7-2.96 0-6 0c-3.52-3.81-3.52-3.81-7.38-9-6.51-8.48-13.36-15.98-21.03-23.41-3.59-3.59-3.59-3.59-8.34-9.59-5.9-6.74-12.23-11.88-19.3-17.35-4.29-3.35-8.48-6.74-12.65-10.24-20.71-17.22-42.84-32.04-66.85-44.33-2.17-1.14-4.34-2.28-6.58-3.45-1.87-0.92-3.75-1.84-5.69-2.78-6.08-5.6-5.62-12-6.18-19.85q-0.24-7.76-0.23-15.52 0-2.22 0-4.49 0.01-7.41 0.03-14.81 0.01-5.36 0.01-10.72 0.01-11.6 0.04-23.19 0.04-18.7 0.05-37.4 0.02-23.37 0.06-46.75 0.09-73.54 0.08-147.08c0-2.34 0-4.68 0-7.08 0.01-86.42-0.11-172.84-0.59-259.26q-0.09-16.39-0.14-32.78-0.07-19.73-0.21-39.46-0.07-9.87-0.1-19.75-0.03-10.57-0.14-21.14 0.01-3.01 0.01-6.11c-0.38-28.66-12.18-53.14-31.76-73.87-20.33-18.25-43.11-25.5-69.88-25.6-2.16-0.02-4.32-0.05-6.54-0.07q-10.47-0.08-20.94-0.04c-2.38 0-4.77 0-7.22 0-38.48 0.09-73.3 3.27-110.53 13.12q-6.77 1.65-13.55 3.28c-13.55 3.33-27 6.98-40.45 10.72-2.54 0.7-5.08 1.4-7.69 2.12-75.06 20.48-75.06 20.48-142.91 57.62-3.4 2.26-3.4 2.26-9.4 4.26q-2.1 3.95-4 8-3 3-6 6c-3.32 9.95-3.98 20.35-0.47 30.38 6.68 12.04 16.85 18.72 28.47 25.62q1.81 1.08 3.67 2.2c42.14 24.87 90.04 38.46 136.27 53.72 23.73 7.85 47.16 15.99 70.06 26.08q2.62 1.13 5.32 2.3c23.48 10.24 45.32 22.03 66.68 36.2 2.99 1.98 2.99 1.98 6.04 4.01 9.88 6.74 18.77 13.6 26.93 22.37 3.33 3.43 6.9 6.3 10.65 9.25 28.29 24.55 46.45 63.01 50.38 99.87 1.94 29.63 1.33 59.15-6 88-0.56 2.32-1.13 4.65-1.71 7.04-10.4 36.12-31.3 71.03-56.29 98.96q-1.41 1.58-2.86 3.21-7 7.81-14.18 15.45c-4.09 4.4-7.98 8.87-11.84 13.47-15.81 18.14-34.69 33.06-53.88 47.44-5.24 3.93-10.42 7.93-15.62 11.93q-1.55 1.19-3.14 2.42c-11.24 8.64-22.42 17.36-33.59 26.09-6.93 5.4-13.88 10.75-20.94 15.98-8.41 6.29-16.5 12.93-24.58 19.64q-4.5 3.73-9.01 7.46-2.15 1.77-4.36 3.61-7.66 6.31-15.38 12.55c-9.55 7.8-18.9 15.81-28.23 23.87q-10.61 9.12-21.52 17.88c-10.62 8.62-20.61 17.83-30.6 27.17-5.49 5.14-11.11 10.12-16.77 15.08-26.01 23.36-46.26 51.78-65.5 80.75q-1.69 2.54-3.44 5.16c-25.6 40.61-40.37 86.3-50.56 132.84q-0.54 2.44-1.1 4.96c-17.62 82.85-1.51 177.62 38.65 251.57 1.05 1.97 2.11 3.94 3.2 5.97 1.09 1.99 2.18 3.98 3.3 6.03 1.95 5.47 1.95 5.47 0.71 9.79-2.94 3.92-5.89 6.9-9.64 10.06q-2.13 1.8-4.32 3.66-2.37 1.95-4.8 3.96c-1.71 1.41-3.41 2.82-5.17 4.27q-11.18 9.17-22.42 18.25c-8.89 7.2-17.61 14.49-26.04 22.23-9.07 8.28-18.59 15.83-28.29 23.35-7.62 5.92-14.97 12.04-22.17 18.46-10.87 9.55-22.27 18.5-33.52 27.6-13.91 11.26-27.74 22.6-41.37 34.22-7.75 6.59-15.65 12.94-23.64 19.24-4.3 3.5-8.51 7.06-12.7 10.7q-1.9 1.65-3.85 3.34-3.78 3.3-7.54 6.62c-8.85 7.72-8.85 7.72-13.29 7.72q0 1.97 0 4c-3.73 3.12-7.46 6.01-11.38 8.88-9.53 7.15-18.81 14.49-27.87 22.25-7.76 6.63-15.56 13.2-23.5 19.62-8.91 7.24-17.6 14.71-26.25 22.25-10.37 9.04-20.86 17.88-31.55 26.54q-7.42 6.08-14.71 12.32-8.34 7.1-16.74 14.14-1.79 1.51-3.63 3.06c-26.2 21.99-52.13 42.49-87.94 41.67-21.64-2.47-38.07-12.76-52.43-28.73-19.99-25.33-20.31-50.07-20.26-81.18q0-4.04-0.01-8.09-0.01-11.08 0-22.17 0-12.07-0.01-24.14-0.02-21.15-0.01-42.29 0-31.45-0.02-62.9-0.02-59.44-0.02-118.87-0.01-45.91-0.02-91.82 0-13.22 0-26.44c0-2.19 0-4.38 0-6.64q-0.02-92.43-0.02-184.87c0-2.32 0-4.64 0-7.04q0-17.66 0-35.32c0-2.34 0-4.68 0-7.09q0-7.09 0-14.18 0-110.33-0.04-220.67-0.05-123.98-0.05-247.96 0-13.23 0-26.46c0-2.17 0-4.34 0-6.58q0-52.36-0.03-104.71-0.02-52.65 0-105.3 0.01-31.26-0.02-62.51-0.02-20.91 0.01-41.82 0.01-11.89-0.01-23.78c-0.16-80.79-0.16-80.79 8.63-116.04q0.64-2.57 1.3-5.2c17.66-66.85 60.49-123.07 119.77-158.25 42.22-22.8 86.44-34.67 134.34-34.44zm-77.84 186.33c-27.29 32.78-28.02 68.98-27.94 109.91-0.01 2.59-0.01 5.19-0.01 7.86q-0.01 10.65 0 21.31 0 11.55-0.01 23.09-0.01 22.56 0 45.11 0.01 18.34 0 36.67 0 2.61 0 5.29 0 5.32 0 10.64-0.01 49.75 0.01 99.51 0.01 42.65 0 85.31-0.02 49.61-0.01 99.23 0 5.29 0 10.58 0 2.59 0 5.26 0.01 18.32 0 36.63-0.01 22.32 0 44.63 0.01 11.38 0 22.76 0 12.34 0.02 24.68c-0.01 2.39-0.01 4.78-0.02 7.23 0.03 12.42 0.63 24.42 2.27 36.73 5.27-5.27 6.09-9.99 8.25-17.12 14.9-46.43 41.59-86.25 79.75-116.88 1.88-1.54 3.77-3.07 5.71-4.66 70.32-56.34 161.06-86.67 245.29-115.86 13.34-4.65 26.44-9.61 39.45-15.14q7.71-3.24 15.52-6.25c65.53-24.66 65.53-24.66 110.15-75.84 4.82-16.11 3.79-34.2-3.2-49.43-12.75-21.03-32.47-36.17-53.55-48.07q-2.68-1.53-5.45-3.1c-20.78-11.58-42.43-21.21-64.1-30.99-29.34-13.4-58.31-27.84-83.47-48.19-4.82-3.88-8.41-6.49-14.35-8.47q-2.13-3.94-4-8-2.78-3.33-5.75-6.5c-13.99-15.97-19.22-34.36-18.73-55.41 1.92-24.53 16.05-45.73 33.81-62.26 58.59-48.01 140.64-64.58 212.79-79.7q7.03-1.5 14.06-2.99 16.91-3.6 33.82-7.14 0-0.98 0-2-87.24-0.21-174.48-0.31-10.31-0.01-20.62-0.02-2.05 0-4.15 0-33.19-0.05-66.37-0.13-34.09-0.09-68.18-0.1-19.13-0.01-38.26-0.07-18.03-0.06-36.05-0.05-6.6 0-13.2-0.04c-38.9-0.19-70.74 2.12-99 32.29z"/>
</svg>
